<svg width="73" height="72" viewBox="0 0 73 72" fill="none" xmlns="http://www.w3.org/2000/svg">
<path d="M52.0078 6.18524H20.9925C16.6462 6.18524 12.833 9.12111 12.6588 13.3514C12.4396 18.674 16.183 22.2084 20.1147 25.5264C25.5537 30.1164 28.2733 32.4115 28.5585 35.3167C28.6031 35.7714 28.6031 36.2287 28.5585 36.6834C28.2733 39.5886 25.5538 41.8837 20.1147 46.4737C16.0747 49.883 12.4283 53.0526 12.6588 58.6486C12.833 62.879 16.6462 65.8149 20.9925 65.8149H52.0078C56.3539 65.8149 60.1672 62.879 60.3413 58.6486C60.48 55.2807 59.2319 51.9271 56.5808 49.5956C55.3721 48.5324 54.1172 47.513 52.8856 46.4737C47.4464 41.8837 44.727 39.5886 44.4417 36.6834C44.397 36.2287 44.397 35.7714 44.4417 35.3167C44.727 32.4115 47.4464 30.1164 52.8856 25.5264C56.8831 22.1528 60.5691 18.8807 60.3413 13.3514C60.1672 9.12111 56.3539 6.18524 52.0078 6.18524Z" stroke="#0DA81F" stroke-width="3.06667"/>
<path d="M27.5557 64.7358C27.5557 63.4183 27.5557 62.7594 27.8168 62.1836C27.8583 62.0921 27.9045 62.0027 27.9552 61.9159C28.2742 61.3694 28.8142 60.9836 29.8941 60.212C32.894 58.0692 34.3937 56.9976 36.0982 56.8837C36.3659 56.8659 36.6343 56.8659 36.902 56.8837C38.6065 56.9976 40.1062 58.0692 43.1062 60.212C44.1861 60.9836 44.726 61.3694 45.045 61.9159C45.0957 62.0027 45.1419 62.0921 45.1834 62.1836C45.4446 62.7594 45.4446 63.4183 45.4446 64.7358V65.8148H27.5557V64.7358Z" stroke="#0DA81F" stroke-width="3.06667" stroke-linecap="round"/>
</svg>
