<svg width="14" height="5" viewBox="0 0 14 5" fill="none" xmlns="http://www.w3.org/2000/svg">
<path fill-rule="evenodd" clip-rule="evenodd" d="M0.553069 0.77605C0.612482 0.657761 0.716377 0.56786 0.841974 0.526057C0.96757 0.484254 1.10462 0.493961 1.22307 0.55305L7.00007 3.44005L12.7761 0.55205C12.8348 0.522031 12.899 0.50394 12.9647 0.498821C13.0305 0.493702 13.0967 0.501656 13.1594 0.522224C13.2221 0.542793 13.2801 0.575568 13.3301 0.618661C13.38 0.661755 13.421 0.714314 13.4505 0.773308C13.4801 0.832302 13.4977 0.896564 13.5023 0.962389C13.5069 1.02822 13.4985 1.0943 13.4774 1.15684C13.4563 1.21938 13.4231 1.27713 13.3796 1.32677C13.3362 1.3764 13.2833 1.41694 13.2241 1.44605L7.22407 4.44605C7.15454 4.48089 7.07784 4.49903 7.00007 4.49903C6.9223 4.49903 6.8456 4.48089 6.77607 4.44605L0.776069 1.44605C0.657781 1.38664 0.567879 1.28274 0.526076 1.15714C0.484273 1.03155 0.49398 0.8945 0.553069 0.77605Z" fill="black"/>
</svg>
